<mxfile host="app.diagrams.net" modified="2022-09-29T05:47:15.636Z" agent="5.0 (Windows NT 10.0; Win64; x64) AppleWebKit/537.36 (KHTML, like Gecko) Chrome/104.0.5112.102 Safari/537.36 OPR/90.0.4480.117" etag="BdafIUNW7HS4DcT8XVu_" version="20.3.7" type="github">
  <diagram id="7AH4Z8s479LxvaRiZOp7" name="Страница 1">
    <mxGraphModel dx="1151" dy="663" grid="1" gridSize="10" guides="1" tooltips="1" connect="1" arrows="1" fold="1" page="1" pageScale="1" pageWidth="827" pageHeight="1169" math="0" shadow="0">
      <root>
        <mxCell id="0" />
        <mxCell id="1" parent="0" />
        <mxCell id="_s_W3P0ang8MFZWdYoKm-1" value="Аварийное&lt;br&gt;выключение&lt;br&gt;компьютера" style="rounded=0;whiteSpace=wrap;html=1;" vertex="1" parent="1">
          <mxGeometry x="354" y="300" width="120" height="60" as="geometry" />
        </mxCell>
        <mxCell id="_s_W3P0ang8MFZWdYoKm-2" value="" style="shape=xor;rotation=-89;fontFamily=Times New Roman;fontSize=10;textDirection=ltr;html=1;" vertex="1" parent="1">
          <mxGeometry x="399" y="372" width="30" height="40" as="geometry" />
        </mxCell>
        <mxCell id="_s_W3P0ang8MFZWdYoKm-4" value="" style="endArrow=none;html=1;rounded=0;exitX=1;exitY=0.5;exitDx=0;exitDy=0;exitPerimeter=0;" edge="1" parent="1" source="_s_W3P0ang8MFZWdYoKm-2">
          <mxGeometry width="50" height="50" relative="1" as="geometry">
            <mxPoint x="400" y="490" as="sourcePoint" />
            <mxPoint x="414" y="360" as="targetPoint" />
          </mxGeometry>
        </mxCell>
        <mxCell id="_s_W3P0ang8MFZWdYoKm-5" value="или" style="text;html=1;strokeColor=none;fillColor=none;align=center;verticalAlign=middle;whiteSpace=wrap;rounded=0;fontFamily=Times New Roman;fontSize=10;" vertex="1" parent="1">
          <mxGeometry x="384" y="377" width="60" height="30" as="geometry" />
        </mxCell>
        <mxCell id="_s_W3P0ang8MFZWdYoKm-8" value="Отключение&lt;br&gt;электроэнергии" style="rounded=0;whiteSpace=wrap;html=1;fontFamily=Times New Roman;fontSize=10;" vertex="1" parent="1">
          <mxGeometry x="80" y="460" width="120" height="60" as="geometry" />
        </mxCell>
        <mxCell id="_s_W3P0ang8MFZWdYoKm-9" value="Отказ&lt;br&gt;аппаратного&lt;br&gt;обеспечения&amp;nbsp;&lt;br&gt;компьютера" style="rounded=0;whiteSpace=wrap;html=1;fontFamily=Times New Roman;fontSize=10;" vertex="1" parent="1">
          <mxGeometry x="354" y="460" width="120" height="60" as="geometry" />
        </mxCell>
        <mxCell id="_s_W3P0ang8MFZWdYoKm-10" value="Отказ&lt;br&gt;программного&lt;br&gt;обеспечения на&amp;nbsp;&lt;br&gt;компьютере" style="rounded=0;whiteSpace=wrap;html=1;fontFamily=Times New Roman;fontSize=10;" vertex="1" parent="1">
          <mxGeometry x="600" y="460" width="120" height="60" as="geometry" />
        </mxCell>
        <mxCell id="_s_W3P0ang8MFZWdYoKm-13" value="" style="group" vertex="1" connectable="0" parent="1">
          <mxGeometry x="105" y="540" width="60" height="35.34676355609156" as="geometry" />
        </mxCell>
        <mxCell id="_s_W3P0ang8MFZWdYoKm-6" value="" style="shape=xor;rotation=-89;fontFamily=Times New Roman;fontSize=10;textDirection=ltr;html=1;" vertex="1" parent="_s_W3P0ang8MFZWdYoKm-13">
          <mxGeometry x="15" width="30" height="40" as="geometry" />
        </mxCell>
        <mxCell id="_s_W3P0ang8MFZWdYoKm-7" value="или" style="text;html=1;strokeColor=none;fillColor=none;align=center;verticalAlign=middle;whiteSpace=wrap;rounded=0;fontFamily=Times New Roman;fontSize=10;" vertex="1" parent="_s_W3P0ang8MFZWdYoKm-13">
          <mxGeometry width="60" height="30" as="geometry" />
        </mxCell>
        <mxCell id="_s_W3P0ang8MFZWdYoKm-14" value="" style="group" vertex="1" connectable="0" parent="1">
          <mxGeometry x="384" y="540" width="60" height="35.34676355609156" as="geometry" />
        </mxCell>
        <mxCell id="_s_W3P0ang8MFZWdYoKm-15" value="" style="shape=xor;rotation=-89;fontFamily=Times New Roman;fontSize=10;textDirection=ltr;html=1;" vertex="1" parent="_s_W3P0ang8MFZWdYoKm-14">
          <mxGeometry x="15" width="30" height="40" as="geometry" />
        </mxCell>
        <mxCell id="_s_W3P0ang8MFZWdYoKm-16" value="или" style="text;html=1;strokeColor=none;fillColor=none;align=center;verticalAlign=middle;whiteSpace=wrap;rounded=0;fontFamily=Times New Roman;fontSize=10;" vertex="1" parent="_s_W3P0ang8MFZWdYoKm-14">
          <mxGeometry width="60" height="30" as="geometry" />
        </mxCell>
        <mxCell id="_s_W3P0ang8MFZWdYoKm-17" value="" style="group" vertex="1" connectable="0" parent="1">
          <mxGeometry x="630" y="540" width="60" height="35.34676355609156" as="geometry" />
        </mxCell>
        <mxCell id="_s_W3P0ang8MFZWdYoKm-18" value="" style="shape=xor;rotation=-89;fontFamily=Times New Roman;fontSize=10;textDirection=ltr;html=1;" vertex="1" parent="_s_W3P0ang8MFZWdYoKm-17">
          <mxGeometry x="15" width="30" height="40" as="geometry" />
        </mxCell>
        <mxCell id="_s_W3P0ang8MFZWdYoKm-19" value="или" style="text;html=1;strokeColor=none;fillColor=none;align=center;verticalAlign=middle;whiteSpace=wrap;rounded=0;fontFamily=Times New Roman;fontSize=10;" vertex="1" parent="_s_W3P0ang8MFZWdYoKm-17">
          <mxGeometry width="60" height="30" as="geometry" />
        </mxCell>
        <mxCell id="_s_W3P0ang8MFZWdYoKm-21" value="Отказ&lt;br&gt;операционной системы" style="rounded=0;whiteSpace=wrap;html=1;fontFamily=Times New Roman;fontSize=10;" vertex="1" parent="1">
          <mxGeometry x="530" y="601" width="110" height="60" as="geometry" />
        </mxCell>
        <mxCell id="_s_W3P0ang8MFZWdYoKm-22" value="&lt;font style=&quot;font-size: 8px;&quot;&gt;Авария на&lt;br&gt;электростанции&lt;/font&gt;" style="ellipse;whiteSpace=wrap;html=1;aspect=fixed;fontFamily=Times New Roman;fontSize=10;" vertex="1" parent="1">
          <mxGeometry x="20" y="590.5" width="70" height="70" as="geometry" />
        </mxCell>
        <mxCell id="_s_W3P0ang8MFZWdYoKm-23" value="&lt;font size=&quot;1&quot;&gt;Обрыв ЛЭП&lt;/font&gt;" style="ellipse;whiteSpace=wrap;html=1;aspect=fixed;fontFamily=Times New Roman;fontSize=10;" vertex="1" parent="1">
          <mxGeometry x="100" y="591" width="70" height="70" as="geometry" />
        </mxCell>
        <mxCell id="_s_W3P0ang8MFZWdYoKm-24" value="Короткое&lt;br&gt;замыкание" style="ellipse;whiteSpace=wrap;html=1;aspect=fixed;fontFamily=Times New Roman;fontSize=10;" vertex="1" parent="1">
          <mxGeometry x="180" y="591" width="70" height="70" as="geometry" />
        </mxCell>
        <mxCell id="_s_W3P0ang8MFZWdYoKm-25" value="&lt;font style=&quot;font-size: 8px;&quot;&gt;Несоблюдение&lt;br&gt;требований&lt;br&gt;эксплуатации&lt;br&gt;оборудования&lt;/font&gt;" style="ellipse;whiteSpace=wrap;html=1;aspect=fixed;fontFamily=Times New Roman;fontSize=10;" vertex="1" parent="1">
          <mxGeometry x="330" y="591" width="69" height="69" as="geometry" />
        </mxCell>
        <mxCell id="_s_W3P0ang8MFZWdYoKm-26" value="Окончание&lt;br&gt;срока&lt;br&gt;предлагаемой&lt;br&gt;эксплуатации" style="ellipse;whiteSpace=wrap;html=1;aspect=fixed;fontFamily=Times New Roman;fontSize=10;" vertex="1" parent="1">
          <mxGeometry x="429" y="591" width="70" height="70" as="geometry" />
        </mxCell>
        <mxCell id="_s_W3P0ang8MFZWdYoKm-27" value="Отказ доступа&lt;br&gt;к операционной&amp;nbsp;&lt;br&gt;системе" style="rounded=0;whiteSpace=wrap;html=1;fontFamily=Times New Roman;fontSize=10;" vertex="1" parent="1">
          <mxGeometry x="690" y="601" width="110" height="59" as="geometry" />
        </mxCell>
        <mxCell id="_s_W3P0ang8MFZWdYoKm-28" value="" style="group" vertex="1" connectable="0" parent="1">
          <mxGeometry x="555" y="680" width="60" height="35.34676355609156" as="geometry" />
        </mxCell>
        <mxCell id="_s_W3P0ang8MFZWdYoKm-29" value="" style="shape=xor;rotation=-89;fontFamily=Times New Roman;fontSize=10;textDirection=ltr;html=1;" vertex="1" parent="_s_W3P0ang8MFZWdYoKm-28">
          <mxGeometry x="15" width="30" height="40" as="geometry" />
        </mxCell>
        <mxCell id="_s_W3P0ang8MFZWdYoKm-30" value="или" style="text;html=1;strokeColor=none;fillColor=none;align=center;verticalAlign=middle;whiteSpace=wrap;rounded=0;fontFamily=Times New Roman;fontSize=10;" vertex="1" parent="_s_W3P0ang8MFZWdYoKm-28">
          <mxGeometry width="60" height="30" as="geometry" />
        </mxCell>
        <mxCell id="_s_W3P0ang8MFZWdYoKm-34" value="Заражение&lt;br&gt;вирусом" style="ellipse;whiteSpace=wrap;html=1;aspect=fixed;fontFamily=Times New Roman;fontSize=10;" vertex="1" parent="1">
          <mxGeometry x="510" y="744.65" width="70" height="70" as="geometry" />
        </mxCell>
        <mxCell id="_s_W3P0ang8MFZWdYoKm-38" value="Случайное&lt;br&gt;удаление&lt;br&gt;системных&lt;br&gt;файлов" style="ellipse;whiteSpace=wrap;html=1;aspect=fixed;fontFamily=Times New Roman;fontSize=10;" vertex="1" parent="1">
          <mxGeometry x="590" y="744.65" width="70" height="70" as="geometry" />
        </mxCell>
        <mxCell id="_s_W3P0ang8MFZWdYoKm-39" value="" style="group" vertex="1" connectable="0" parent="1">
          <mxGeometry x="720" y="680" width="60" height="35.34676355609156" as="geometry" />
        </mxCell>
        <mxCell id="_s_W3P0ang8MFZWdYoKm-40" value="" style="shape=xor;rotation=-89;fontFamily=Times New Roman;fontSize=10;textDirection=ltr;html=1;" vertex="1" parent="_s_W3P0ang8MFZWdYoKm-39">
          <mxGeometry x="15" width="30" height="40" as="geometry" />
        </mxCell>
        <mxCell id="_s_W3P0ang8MFZWdYoKm-41" value="или" style="text;html=1;strokeColor=none;fillColor=none;align=center;verticalAlign=middle;whiteSpace=wrap;rounded=0;fontFamily=Times New Roman;fontSize=10;" vertex="1" parent="_s_W3P0ang8MFZWdYoKm-39">
          <mxGeometry width="60" height="30" as="geometry" />
        </mxCell>
        <mxCell id="_s_W3P0ang8MFZWdYoKm-42" value="Вирус Petya" style="ellipse;whiteSpace=wrap;html=1;aspect=fixed;fontFamily=Times New Roman;fontSize=10;" vertex="1" parent="1">
          <mxGeometry x="670" y="744.65" width="70" height="70" as="geometry" />
        </mxCell>
        <mxCell id="_s_W3P0ang8MFZWdYoKm-43" value="Winlocker" style="ellipse;whiteSpace=wrap;html=1;aspect=fixed;fontFamily=Times New Roman;fontSize=10;" vertex="1" parent="1">
          <mxGeometry x="755" y="744.65" width="70" height="70" as="geometry" />
        </mxCell>
        <mxCell id="_s_W3P0ang8MFZWdYoKm-44" value="" style="endArrow=none;html=1;rounded=0;fontFamily=Times New Roman;fontSize=8;exitX=0.5;exitY=0;exitDx=0;exitDy=0;" edge="1" parent="1" source="_s_W3P0ang8MFZWdYoKm-9">
          <mxGeometry width="50" height="50" relative="1" as="geometry">
            <mxPoint x="440" y="490" as="sourcePoint" />
            <mxPoint x="414" y="399" as="targetPoint" />
          </mxGeometry>
        </mxCell>
        <mxCell id="_s_W3P0ang8MFZWdYoKm-45" value="" style="endArrow=none;html=1;rounded=0;fontFamily=Times New Roman;fontSize=8;entryX=0.5;entryY=0;entryDx=0;entryDy=0;" edge="1" parent="1" target="_s_W3P0ang8MFZWdYoKm-10">
          <mxGeometry width="50" height="50" relative="1" as="geometry">
            <mxPoint x="424" y="401" as="sourcePoint" />
            <mxPoint x="500" y="450" as="targetPoint" />
            <Array as="points">
              <mxPoint x="424" y="440" />
              <mxPoint x="660" y="440" />
            </Array>
          </mxGeometry>
        </mxCell>
        <mxCell id="_s_W3P0ang8MFZWdYoKm-46" value="" style="endArrow=none;html=1;rounded=0;fontFamily=Times New Roman;fontSize=8;entryX=0.5;entryY=0;entryDx=0;entryDy=0;" edge="1" parent="1">
          <mxGeometry width="50" height="50" relative="1" as="geometry">
            <mxPoint x="400" y="402" as="sourcePoint" />
            <mxPoint x="130" y="460" as="targetPoint" />
            <Array as="points">
              <mxPoint x="400" y="440" />
              <mxPoint x="130" y="440" />
            </Array>
          </mxGeometry>
        </mxCell>
        <mxCell id="_s_W3P0ang8MFZWdYoKm-47" value="" style="endArrow=none;html=1;rounded=0;fontFamily=Times New Roman;fontSize=8;entryX=0.459;entryY=1.011;entryDx=0;entryDy=0;entryPerimeter=0;" edge="1" parent="1" target="_s_W3P0ang8MFZWdYoKm-8">
          <mxGeometry width="50" height="50" relative="1" as="geometry">
            <mxPoint x="135" y="546" as="sourcePoint" />
            <mxPoint x="440" y="590" as="targetPoint" />
          </mxGeometry>
        </mxCell>
        <mxCell id="_s_W3P0ang8MFZWdYoKm-48" value="" style="endArrow=none;html=1;rounded=0;fontFamily=Times New Roman;fontSize=8;entryX=0.25;entryY=0.5;entryDx=0;entryDy=0;entryPerimeter=0;exitX=0.5;exitY=0;exitDx=0;exitDy=0;" edge="1" parent="1" source="_s_W3P0ang8MFZWdYoKm-23" target="_s_W3P0ang8MFZWdYoKm-6">
          <mxGeometry width="50" height="50" relative="1" as="geometry">
            <mxPoint x="130" y="640" as="sourcePoint" />
            <mxPoint x="180" y="590" as="targetPoint" />
          </mxGeometry>
        </mxCell>
        <mxCell id="_s_W3P0ang8MFZWdYoKm-49" value="" style="endArrow=none;html=1;rounded=0;fontFamily=Times New Roman;fontSize=8;exitX=0.618;exitY=0.955;exitDx=0;exitDy=0;exitPerimeter=0;" edge="1" parent="1" source="_s_W3P0ang8MFZWdYoKm-7">
          <mxGeometry width="50" height="50" relative="1" as="geometry">
            <mxPoint x="142" y="570" as="sourcePoint" />
            <mxPoint x="214" y="591" as="targetPoint" />
            <Array as="points">
              <mxPoint x="142" y="582" />
              <mxPoint x="214" y="583" />
            </Array>
          </mxGeometry>
        </mxCell>
        <mxCell id="_s_W3P0ang8MFZWdYoKm-50" value="" style="endArrow=none;html=1;rounded=0;fontFamily=Times New Roman;fontSize=8;exitX=0.5;exitY=0;exitDx=0;exitDy=0;" edge="1" parent="1" source="_s_W3P0ang8MFZWdYoKm-22">
          <mxGeometry width="50" height="50" relative="1" as="geometry">
            <mxPoint x="120" y="620" as="sourcePoint" />
            <mxPoint x="128" y="568" as="targetPoint" />
            <Array as="points">
              <mxPoint x="55" y="584" />
              <mxPoint x="128" y="584" />
            </Array>
          </mxGeometry>
        </mxCell>
        <mxCell id="_s_W3P0ang8MFZWdYoKm-51" value="" style="endArrow=none;html=1;rounded=0;fontFamily=Times New Roman;fontSize=8;entryX=0.5;entryY=1;entryDx=0;entryDy=0;" edge="1" parent="1" target="_s_W3P0ang8MFZWdYoKm-9">
          <mxGeometry width="50" height="50" relative="1" as="geometry">
            <mxPoint x="414" y="546" as="sourcePoint" />
            <mxPoint x="440" y="520" as="targetPoint" />
          </mxGeometry>
        </mxCell>
        <mxCell id="_s_W3P0ang8MFZWdYoKm-52" value="" style="endArrow=none;html=1;rounded=0;fontFamily=Times New Roman;fontSize=8;" edge="1" parent="1">
          <mxGeometry width="50" height="50" relative="1" as="geometry">
            <mxPoint x="365" y="591" as="sourcePoint" />
            <mxPoint x="406" y="568" as="targetPoint" />
            <Array as="points">
              <mxPoint x="365" y="585" />
              <mxPoint x="406" y="584" />
            </Array>
          </mxGeometry>
        </mxCell>
        <mxCell id="_s_W3P0ang8MFZWdYoKm-53" value="" style="endArrow=none;html=1;rounded=0;fontFamily=Times New Roman;fontSize=8;" edge="1" parent="1">
          <mxGeometry width="50" height="50" relative="1" as="geometry">
            <mxPoint x="463" y="591" as="sourcePoint" />
            <mxPoint x="422" y="569" as="targetPoint" />
            <Array as="points">
              <mxPoint x="463" y="585" />
              <mxPoint x="422" y="584" />
            </Array>
          </mxGeometry>
        </mxCell>
        <mxCell id="_s_W3P0ang8MFZWdYoKm-54" value="" style="endArrow=none;html=1;rounded=0;fontFamily=Times New Roman;fontSize=8;entryX=0.5;entryY=1;entryDx=0;entryDy=0;" edge="1" parent="1" target="_s_W3P0ang8MFZWdYoKm-10">
          <mxGeometry width="50" height="50" relative="1" as="geometry">
            <mxPoint x="660" y="546" as="sourcePoint" />
            <mxPoint x="710" y="600" as="targetPoint" />
          </mxGeometry>
        </mxCell>
        <mxCell id="_s_W3P0ang8MFZWdYoKm-55" value="" style="endArrow=none;html=1;rounded=0;fontFamily=Times New Roman;fontSize=8;" edge="1" parent="1">
          <mxGeometry width="50" height="50" relative="1" as="geometry">
            <mxPoint x="580" y="600" as="sourcePoint" />
            <mxPoint x="656" y="568" as="targetPoint" />
            <Array as="points">
              <mxPoint x="580" y="585" />
              <mxPoint x="656" y="584" />
            </Array>
          </mxGeometry>
        </mxCell>
        <mxCell id="_s_W3P0ang8MFZWdYoKm-56" value="" style="endArrow=none;html=1;rounded=0;fontFamily=Times New Roman;fontSize=8;" edge="1" parent="1">
          <mxGeometry width="50" height="50" relative="1" as="geometry">
            <mxPoint x="750" y="600" as="sourcePoint" />
            <mxPoint x="664" y="568" as="targetPoint" />
            <Array as="points">
              <mxPoint x="750" y="583" />
              <mxPoint x="664" y="583" />
            </Array>
          </mxGeometry>
        </mxCell>
        <mxCell id="_s_W3P0ang8MFZWdYoKm-57" value="" style="endArrow=none;html=1;rounded=0;fontFamily=Times New Roman;fontSize=8;entryX=0.542;entryY=1.009;entryDx=0;entryDy=0;entryPerimeter=0;" edge="1" parent="1" target="_s_W3P0ang8MFZWdYoKm-27">
          <mxGeometry width="50" height="50" relative="1" as="geometry">
            <mxPoint x="750" y="685" as="sourcePoint" />
            <mxPoint x="740" y="670" as="targetPoint" />
          </mxGeometry>
        </mxCell>
        <mxCell id="_s_W3P0ang8MFZWdYoKm-58" value="" style="endArrow=none;html=1;rounded=0;fontFamily=Times New Roman;fontSize=8;entryX=0.5;entryY=1;entryDx=0;entryDy=0;" edge="1" parent="1" target="_s_W3P0ang8MFZWdYoKm-21">
          <mxGeometry width="50" height="50" relative="1" as="geometry">
            <mxPoint x="585" y="685" as="sourcePoint" />
            <mxPoint x="740" y="670" as="targetPoint" />
          </mxGeometry>
        </mxCell>
        <mxCell id="_s_W3P0ang8MFZWdYoKm-59" value="" style="endArrow=none;html=1;rounded=0;fontFamily=Times New Roman;fontSize=8;exitX=0.5;exitY=0;exitDx=0;exitDy=0;" edge="1" parent="1" source="_s_W3P0ang8MFZWdYoKm-34">
          <mxGeometry width="50" height="50" relative="1" as="geometry">
            <mxPoint x="533" y="733" as="sourcePoint" />
            <mxPoint x="574" y="710" as="targetPoint" />
            <Array as="points">
              <mxPoint x="545" y="726" />
              <mxPoint x="574" y="726" />
            </Array>
          </mxGeometry>
        </mxCell>
        <mxCell id="_s_W3P0ang8MFZWdYoKm-60" value="" style="endArrow=none;html=1;rounded=0;fontFamily=Times New Roman;fontSize=8;exitX=0.5;exitY=0;exitDx=0;exitDy=0;" edge="1" parent="1" source="_s_W3P0ang8MFZWdYoKm-38">
          <mxGeometry width="50" height="50" relative="1" as="geometry">
            <mxPoint x="635" y="732" as="sourcePoint" />
            <mxPoint x="594" y="710" as="targetPoint" />
            <Array as="points">
              <mxPoint x="625" y="726" />
              <mxPoint x="594" y="725" />
            </Array>
          </mxGeometry>
        </mxCell>
        <mxCell id="_s_W3P0ang8MFZWdYoKm-61" value="" style="endArrow=none;html=1;rounded=0;fontFamily=Times New Roman;fontSize=8;exitX=0.5;exitY=0;exitDx=0;exitDy=0;" edge="1" parent="1">
          <mxGeometry width="50" height="50" relative="1" as="geometry">
            <mxPoint x="790" y="744.6500000000001" as="sourcePoint" />
            <mxPoint x="759" y="710" as="targetPoint" />
            <Array as="points">
              <mxPoint x="790" y="726" />
              <mxPoint x="759" y="725" />
            </Array>
          </mxGeometry>
        </mxCell>
        <mxCell id="_s_W3P0ang8MFZWdYoKm-62" value="" style="endArrow=none;html=1;rounded=0;fontFamily=Times New Roman;fontSize=8;exitX=0.5;exitY=0;exitDx=0;exitDy=0;" edge="1" parent="1" source="_s_W3P0ang8MFZWdYoKm-42">
          <mxGeometry width="50" height="50" relative="1" as="geometry">
            <mxPoint x="710" y="744.6500000000001" as="sourcePoint" />
            <mxPoint x="739" y="710" as="targetPoint" />
            <Array as="points">
              <mxPoint x="705" y="726" />
              <mxPoint x="739" y="726" />
            </Array>
          </mxGeometry>
        </mxCell>
        <mxCell id="_s_W3P0ang8MFZWdYoKm-63" value="Отсутствие&lt;br&gt;у студента&lt;br&gt;допуска&lt;br&gt;к экзамену" style="rounded=0;whiteSpace=wrap;html=1;" vertex="1" parent="1">
          <mxGeometry x="364" y="840" width="120" height="60" as="geometry" />
        </mxCell>
        <mxCell id="_s_W3P0ang8MFZWdYoKm-64" value="" style="shape=xor;rotation=-89;fontFamily=Times New Roman;fontSize=10;textDirection=ltr;html=1;" vertex="1" parent="1">
          <mxGeometry x="409" y="912" width="30" height="40" as="geometry" />
        </mxCell>
        <mxCell id="_s_W3P0ang8MFZWdYoKm-65" value="" style="endArrow=none;html=1;rounded=0;exitX=1;exitY=0.5;exitDx=0;exitDy=0;exitPerimeter=0;" edge="1" parent="1" source="_s_W3P0ang8MFZWdYoKm-64">
          <mxGeometry width="50" height="50" relative="1" as="geometry">
            <mxPoint x="410" y="1030" as="sourcePoint" />
            <mxPoint x="424" y="900" as="targetPoint" />
          </mxGeometry>
        </mxCell>
        <mxCell id="_s_W3P0ang8MFZWdYoKm-66" value="или" style="text;html=1;strokeColor=none;fillColor=none;align=center;verticalAlign=middle;whiteSpace=wrap;rounded=0;fontFamily=Times New Roman;fontSize=10;" vertex="1" parent="1">
          <mxGeometry x="394" y="917" width="60" height="30" as="geometry" />
        </mxCell>
        <mxCell id="_s_W3P0ang8MFZWdYoKm-67" value="Пропуски пар" style="rounded=0;whiteSpace=wrap;html=1;fontFamily=Times New Roman;fontSize=10;" vertex="1" parent="1">
          <mxGeometry x="90" y="1000" width="120" height="60" as="geometry" />
        </mxCell>
        <mxCell id="_s_W3P0ang8MFZWdYoKm-68" value="Недостаток баллов" style="rounded=0;whiteSpace=wrap;html=1;fontFamily=Times New Roman;fontSize=10;" vertex="1" parent="1">
          <mxGeometry x="364" y="1000" width="120" height="60" as="geometry" />
        </mxCell>
        <mxCell id="_s_W3P0ang8MFZWdYoKm-69" value="Наличие долгов" style="rounded=0;whiteSpace=wrap;html=1;fontFamily=Times New Roman;fontSize=10;" vertex="1" parent="1">
          <mxGeometry x="610" y="1000" width="120" height="60" as="geometry" />
        </mxCell>
        <mxCell id="_s_W3P0ang8MFZWdYoKm-70" value="" style="group" vertex="1" connectable="0" parent="1">
          <mxGeometry x="115" y="1080" width="60" height="35.34676355609156" as="geometry" />
        </mxCell>
        <mxCell id="_s_W3P0ang8MFZWdYoKm-71" value="" style="shape=xor;rotation=-89;fontFamily=Times New Roman;fontSize=10;textDirection=ltr;html=1;" vertex="1" parent="_s_W3P0ang8MFZWdYoKm-70">
          <mxGeometry x="15" width="30" height="40" as="geometry" />
        </mxCell>
        <mxCell id="_s_W3P0ang8MFZWdYoKm-72" value="или" style="text;html=1;strokeColor=none;fillColor=none;align=center;verticalAlign=middle;whiteSpace=wrap;rounded=0;fontFamily=Times New Roman;fontSize=10;" vertex="1" parent="_s_W3P0ang8MFZWdYoKm-70">
          <mxGeometry width="60" height="30" as="geometry" />
        </mxCell>
        <mxCell id="_s_W3P0ang8MFZWdYoKm-73" value="" style="group" vertex="1" connectable="0" parent="1">
          <mxGeometry x="394" y="1080" width="60" height="35.34676355609156" as="geometry" />
        </mxCell>
        <mxCell id="_s_W3P0ang8MFZWdYoKm-74" value="" style="shape=xor;rotation=-89;fontFamily=Times New Roman;fontSize=10;textDirection=ltr;html=1;" vertex="1" parent="_s_W3P0ang8MFZWdYoKm-73">
          <mxGeometry x="15" width="30" height="40" as="geometry" />
        </mxCell>
        <mxCell id="_s_W3P0ang8MFZWdYoKm-75" value="или" style="text;html=1;strokeColor=none;fillColor=none;align=center;verticalAlign=middle;whiteSpace=wrap;rounded=0;fontFamily=Times New Roman;fontSize=10;" vertex="1" parent="_s_W3P0ang8MFZWdYoKm-73">
          <mxGeometry width="60" height="30" as="geometry" />
        </mxCell>
        <mxCell id="_s_W3P0ang8MFZWdYoKm-76" value="" style="group" vertex="1" connectable="0" parent="1">
          <mxGeometry x="640" y="1080" width="60" height="35.34676355609156" as="geometry" />
        </mxCell>
        <mxCell id="_s_W3P0ang8MFZWdYoKm-77" value="" style="shape=xor;rotation=-89;fontFamily=Times New Roman;fontSize=10;textDirection=ltr;html=1;" vertex="1" parent="_s_W3P0ang8MFZWdYoKm-76">
          <mxGeometry x="15" width="30" height="40" as="geometry" />
        </mxCell>
        <mxCell id="_s_W3P0ang8MFZWdYoKm-78" value="или" style="text;html=1;strokeColor=none;fillColor=none;align=center;verticalAlign=middle;whiteSpace=wrap;rounded=0;fontFamily=Times New Roman;fontSize=10;" vertex="1" parent="_s_W3P0ang8MFZWdYoKm-76">
          <mxGeometry width="60" height="30" as="geometry" />
        </mxCell>
        <mxCell id="_s_W3P0ang8MFZWdYoKm-79" value="Отказ&lt;br&gt;операционной системы" style="rounded=0;whiteSpace=wrap;html=1;fontFamily=Times New Roman;fontSize=10;" vertex="1" parent="1">
          <mxGeometry x="540" y="1141" width="110" height="60" as="geometry" />
        </mxCell>
        <mxCell id="_s_W3P0ang8MFZWdYoKm-80" value="&lt;span style=&quot;font-size: 8px;&quot;&gt;Болезнь&lt;/span&gt;" style="ellipse;whiteSpace=wrap;html=1;aspect=fixed;fontFamily=Times New Roman;fontSize=10;" vertex="1" parent="1">
          <mxGeometry x="30" y="1130.5" width="70" height="70" as="geometry" />
        </mxCell>
        <mxCell id="_s_W3P0ang8MFZWdYoKm-81" value="&lt;font size=&quot;1&quot;&gt;Обрыв ЛЭП&lt;/font&gt;" style="ellipse;whiteSpace=wrap;html=1;aspect=fixed;fontFamily=Times New Roman;fontSize=10;" vertex="1" parent="1">
          <mxGeometry x="110" y="1131" width="70" height="70" as="geometry" />
        </mxCell>
        <mxCell id="_s_W3P0ang8MFZWdYoKm-82" value="Короткое&lt;br&gt;замыкание" style="ellipse;whiteSpace=wrap;html=1;aspect=fixed;fontFamily=Times New Roman;fontSize=10;" vertex="1" parent="1">
          <mxGeometry x="190" y="1131" width="70" height="70" as="geometry" />
        </mxCell>
        <mxCell id="_s_W3P0ang8MFZWdYoKm-83" value="&lt;font style=&quot;font-size: 8px;&quot;&gt;Несоблюдение&lt;br&gt;требований&lt;br&gt;эксплуатации&lt;br&gt;оборудования&lt;/font&gt;" style="ellipse;whiteSpace=wrap;html=1;aspect=fixed;fontFamily=Times New Roman;fontSize=10;" vertex="1" parent="1">
          <mxGeometry x="340" y="1131" width="69" height="69" as="geometry" />
        </mxCell>
        <mxCell id="_s_W3P0ang8MFZWdYoKm-84" value="Окончание&lt;br&gt;срока&lt;br&gt;предлагаемой&lt;br&gt;эксплуатации" style="ellipse;whiteSpace=wrap;html=1;aspect=fixed;fontFamily=Times New Roman;fontSize=10;" vertex="1" parent="1">
          <mxGeometry x="439" y="1131" width="70" height="70" as="geometry" />
        </mxCell>
        <mxCell id="_s_W3P0ang8MFZWdYoKm-85" value="Отказ доступа&lt;br&gt;к операционной&amp;nbsp;&lt;br&gt;системе" style="rounded=0;whiteSpace=wrap;html=1;fontFamily=Times New Roman;fontSize=10;" vertex="1" parent="1">
          <mxGeometry x="700" y="1141" width="110" height="59" as="geometry" />
        </mxCell>
        <mxCell id="_s_W3P0ang8MFZWdYoKm-86" value="" style="group" vertex="1" connectable="0" parent="1">
          <mxGeometry x="565" y="1220" width="60" height="35.34676355609156" as="geometry" />
        </mxCell>
        <mxCell id="_s_W3P0ang8MFZWdYoKm-87" value="" style="shape=xor;rotation=-89;fontFamily=Times New Roman;fontSize=10;textDirection=ltr;html=1;" vertex="1" parent="_s_W3P0ang8MFZWdYoKm-86">
          <mxGeometry x="15" width="30" height="40" as="geometry" />
        </mxCell>
        <mxCell id="_s_W3P0ang8MFZWdYoKm-88" value="или" style="text;html=1;strokeColor=none;fillColor=none;align=center;verticalAlign=middle;whiteSpace=wrap;rounded=0;fontFamily=Times New Roman;fontSize=10;" vertex="1" parent="_s_W3P0ang8MFZWdYoKm-86">
          <mxGeometry width="60" height="30" as="geometry" />
        </mxCell>
        <mxCell id="_s_W3P0ang8MFZWdYoKm-89" value="Заражение&lt;br&gt;вирусом" style="ellipse;whiteSpace=wrap;html=1;aspect=fixed;fontFamily=Times New Roman;fontSize=10;" vertex="1" parent="1">
          <mxGeometry x="520" y="1284.65" width="70" height="70" as="geometry" />
        </mxCell>
        <mxCell id="_s_W3P0ang8MFZWdYoKm-90" value="Случайное&lt;br&gt;удаление&lt;br&gt;системных&lt;br&gt;файлов" style="ellipse;whiteSpace=wrap;html=1;aspect=fixed;fontFamily=Times New Roman;fontSize=10;" vertex="1" parent="1">
          <mxGeometry x="600" y="1284.65" width="70" height="70" as="geometry" />
        </mxCell>
        <mxCell id="_s_W3P0ang8MFZWdYoKm-91" value="" style="group" vertex="1" connectable="0" parent="1">
          <mxGeometry x="730" y="1220" width="60" height="35.34676355609156" as="geometry" />
        </mxCell>
        <mxCell id="_s_W3P0ang8MFZWdYoKm-92" value="" style="shape=xor;rotation=-89;fontFamily=Times New Roman;fontSize=10;textDirection=ltr;html=1;" vertex="1" parent="_s_W3P0ang8MFZWdYoKm-91">
          <mxGeometry x="15" width="30" height="40" as="geometry" />
        </mxCell>
        <mxCell id="_s_W3P0ang8MFZWdYoKm-93" value="или" style="text;html=1;strokeColor=none;fillColor=none;align=center;verticalAlign=middle;whiteSpace=wrap;rounded=0;fontFamily=Times New Roman;fontSize=10;" vertex="1" parent="_s_W3P0ang8MFZWdYoKm-91">
          <mxGeometry width="60" height="30" as="geometry" />
        </mxCell>
        <mxCell id="_s_W3P0ang8MFZWdYoKm-94" value="Вирус Petya" style="ellipse;whiteSpace=wrap;html=1;aspect=fixed;fontFamily=Times New Roman;fontSize=10;" vertex="1" parent="1">
          <mxGeometry x="680" y="1284.65" width="70" height="70" as="geometry" />
        </mxCell>
        <mxCell id="_s_W3P0ang8MFZWdYoKm-95" value="Winlocker" style="ellipse;whiteSpace=wrap;html=1;aspect=fixed;fontFamily=Times New Roman;fontSize=10;" vertex="1" parent="1">
          <mxGeometry x="765" y="1284.65" width="70" height="70" as="geometry" />
        </mxCell>
        <mxCell id="_s_W3P0ang8MFZWdYoKm-96" value="" style="endArrow=none;html=1;rounded=0;fontFamily=Times New Roman;fontSize=8;exitX=0.5;exitY=0;exitDx=0;exitDy=0;" edge="1" parent="1" source="_s_W3P0ang8MFZWdYoKm-68">
          <mxGeometry width="50" height="50" relative="1" as="geometry">
            <mxPoint x="450" y="1030" as="sourcePoint" />
            <mxPoint x="424" y="939" as="targetPoint" />
          </mxGeometry>
        </mxCell>
        <mxCell id="_s_W3P0ang8MFZWdYoKm-97" value="" style="endArrow=none;html=1;rounded=0;fontFamily=Times New Roman;fontSize=8;entryX=0.5;entryY=0;entryDx=0;entryDy=0;" edge="1" parent="1" target="_s_W3P0ang8MFZWdYoKm-69">
          <mxGeometry width="50" height="50" relative="1" as="geometry">
            <mxPoint x="434" y="941" as="sourcePoint" />
            <mxPoint x="510" y="990" as="targetPoint" />
            <Array as="points">
              <mxPoint x="434" y="980" />
              <mxPoint x="670" y="980" />
            </Array>
          </mxGeometry>
        </mxCell>
        <mxCell id="_s_W3P0ang8MFZWdYoKm-98" value="" style="endArrow=none;html=1;rounded=0;fontFamily=Times New Roman;fontSize=8;entryX=0.5;entryY=0;entryDx=0;entryDy=0;" edge="1" parent="1">
          <mxGeometry width="50" height="50" relative="1" as="geometry">
            <mxPoint x="410" y="942" as="sourcePoint" />
            <mxPoint x="140" y="1000" as="targetPoint" />
            <Array as="points">
              <mxPoint x="410" y="980" />
              <mxPoint x="140" y="980" />
            </Array>
          </mxGeometry>
        </mxCell>
        <mxCell id="_s_W3P0ang8MFZWdYoKm-99" value="" style="endArrow=none;html=1;rounded=0;fontFamily=Times New Roman;fontSize=8;entryX=0.459;entryY=1.011;entryDx=0;entryDy=0;entryPerimeter=0;" edge="1" parent="1" target="_s_W3P0ang8MFZWdYoKm-67">
          <mxGeometry width="50" height="50" relative="1" as="geometry">
            <mxPoint x="145" y="1086" as="sourcePoint" />
            <mxPoint x="450" y="1130" as="targetPoint" />
          </mxGeometry>
        </mxCell>
        <mxCell id="_s_W3P0ang8MFZWdYoKm-100" value="" style="endArrow=none;html=1;rounded=0;fontFamily=Times New Roman;fontSize=8;entryX=0.25;entryY=0.5;entryDx=0;entryDy=0;entryPerimeter=0;exitX=0.5;exitY=0;exitDx=0;exitDy=0;" edge="1" parent="1" source="_s_W3P0ang8MFZWdYoKm-81" target="_s_W3P0ang8MFZWdYoKm-71">
          <mxGeometry width="50" height="50" relative="1" as="geometry">
            <mxPoint x="140" y="1180" as="sourcePoint" />
            <mxPoint x="190" y="1130" as="targetPoint" />
          </mxGeometry>
        </mxCell>
        <mxCell id="_s_W3P0ang8MFZWdYoKm-101" value="" style="endArrow=none;html=1;rounded=0;fontFamily=Times New Roman;fontSize=8;exitX=0.618;exitY=0.955;exitDx=0;exitDy=0;exitPerimeter=0;" edge="1" parent="1" source="_s_W3P0ang8MFZWdYoKm-72">
          <mxGeometry width="50" height="50" relative="1" as="geometry">
            <mxPoint x="152" y="1110" as="sourcePoint" />
            <mxPoint x="224" y="1131" as="targetPoint" />
            <Array as="points">
              <mxPoint x="152" y="1122" />
              <mxPoint x="224" y="1123" />
            </Array>
          </mxGeometry>
        </mxCell>
        <mxCell id="_s_W3P0ang8MFZWdYoKm-102" value="" style="endArrow=none;html=1;rounded=0;fontFamily=Times New Roman;fontSize=8;exitX=0.5;exitY=0;exitDx=0;exitDy=0;" edge="1" parent="1" source="_s_W3P0ang8MFZWdYoKm-80">
          <mxGeometry width="50" height="50" relative="1" as="geometry">
            <mxPoint x="130" y="1160" as="sourcePoint" />
            <mxPoint x="138" y="1108" as="targetPoint" />
            <Array as="points">
              <mxPoint x="65" y="1124" />
              <mxPoint x="138" y="1124" />
            </Array>
          </mxGeometry>
        </mxCell>
        <mxCell id="_s_W3P0ang8MFZWdYoKm-103" value="" style="endArrow=none;html=1;rounded=0;fontFamily=Times New Roman;fontSize=8;entryX=0.5;entryY=1;entryDx=0;entryDy=0;" edge="1" parent="1" target="_s_W3P0ang8MFZWdYoKm-68">
          <mxGeometry width="50" height="50" relative="1" as="geometry">
            <mxPoint x="424" y="1086" as="sourcePoint" />
            <mxPoint x="450" y="1060" as="targetPoint" />
          </mxGeometry>
        </mxCell>
        <mxCell id="_s_W3P0ang8MFZWdYoKm-104" value="" style="endArrow=none;html=1;rounded=0;fontFamily=Times New Roman;fontSize=8;" edge="1" parent="1">
          <mxGeometry width="50" height="50" relative="1" as="geometry">
            <mxPoint x="375" y="1131" as="sourcePoint" />
            <mxPoint x="416" y="1108" as="targetPoint" />
            <Array as="points">
              <mxPoint x="375" y="1125" />
              <mxPoint x="416" y="1124" />
            </Array>
          </mxGeometry>
        </mxCell>
        <mxCell id="_s_W3P0ang8MFZWdYoKm-105" value="" style="endArrow=none;html=1;rounded=0;fontFamily=Times New Roman;fontSize=8;" edge="1" parent="1">
          <mxGeometry width="50" height="50" relative="1" as="geometry">
            <mxPoint x="473" y="1131" as="sourcePoint" />
            <mxPoint x="432" y="1109" as="targetPoint" />
            <Array as="points">
              <mxPoint x="473" y="1125" />
              <mxPoint x="432" y="1124" />
            </Array>
          </mxGeometry>
        </mxCell>
        <mxCell id="_s_W3P0ang8MFZWdYoKm-106" value="" style="endArrow=none;html=1;rounded=0;fontFamily=Times New Roman;fontSize=8;entryX=0.5;entryY=1;entryDx=0;entryDy=0;" edge="1" parent="1" target="_s_W3P0ang8MFZWdYoKm-69">
          <mxGeometry width="50" height="50" relative="1" as="geometry">
            <mxPoint x="670" y="1086" as="sourcePoint" />
            <mxPoint x="720" y="1140" as="targetPoint" />
          </mxGeometry>
        </mxCell>
        <mxCell id="_s_W3P0ang8MFZWdYoKm-107" value="" style="endArrow=none;html=1;rounded=0;fontFamily=Times New Roman;fontSize=8;" edge="1" parent="1">
          <mxGeometry width="50" height="50" relative="1" as="geometry">
            <mxPoint x="590" y="1140" as="sourcePoint" />
            <mxPoint x="666.0000000000002" y="1108" as="targetPoint" />
            <Array as="points">
              <mxPoint x="590" y="1125" />
              <mxPoint x="666" y="1124" />
            </Array>
          </mxGeometry>
        </mxCell>
        <mxCell id="_s_W3P0ang8MFZWdYoKm-108" value="" style="endArrow=none;html=1;rounded=0;fontFamily=Times New Roman;fontSize=8;" edge="1" parent="1">
          <mxGeometry width="50" height="50" relative="1" as="geometry">
            <mxPoint x="760" y="1140" as="sourcePoint" />
            <mxPoint x="674" y="1108" as="targetPoint" />
            <Array as="points">
              <mxPoint x="760" y="1123" />
              <mxPoint x="674" y="1123" />
            </Array>
          </mxGeometry>
        </mxCell>
        <mxCell id="_s_W3P0ang8MFZWdYoKm-109" value="" style="endArrow=none;html=1;rounded=0;fontFamily=Times New Roman;fontSize=8;entryX=0.542;entryY=1.009;entryDx=0;entryDy=0;entryPerimeter=0;" edge="1" parent="1" target="_s_W3P0ang8MFZWdYoKm-85">
          <mxGeometry width="50" height="50" relative="1" as="geometry">
            <mxPoint x="760" y="1225" as="sourcePoint" />
            <mxPoint x="750" y="1210" as="targetPoint" />
          </mxGeometry>
        </mxCell>
        <mxCell id="_s_W3P0ang8MFZWdYoKm-110" value="" style="endArrow=none;html=1;rounded=0;fontFamily=Times New Roman;fontSize=8;entryX=0.5;entryY=1;entryDx=0;entryDy=0;" edge="1" parent="1" target="_s_W3P0ang8MFZWdYoKm-79">
          <mxGeometry width="50" height="50" relative="1" as="geometry">
            <mxPoint x="595" y="1225" as="sourcePoint" />
            <mxPoint x="750" y="1210" as="targetPoint" />
          </mxGeometry>
        </mxCell>
        <mxCell id="_s_W3P0ang8MFZWdYoKm-111" value="" style="endArrow=none;html=1;rounded=0;fontFamily=Times New Roman;fontSize=8;exitX=0.5;exitY=0;exitDx=0;exitDy=0;" edge="1" parent="1" source="_s_W3P0ang8MFZWdYoKm-89">
          <mxGeometry width="50" height="50" relative="1" as="geometry">
            <mxPoint x="543" y="1273" as="sourcePoint" />
            <mxPoint x="584" y="1250" as="targetPoint" />
            <Array as="points">
              <mxPoint x="555" y="1266" />
              <mxPoint x="584" y="1266" />
            </Array>
          </mxGeometry>
        </mxCell>
        <mxCell id="_s_W3P0ang8MFZWdYoKm-112" value="" style="endArrow=none;html=1;rounded=0;fontFamily=Times New Roman;fontSize=8;exitX=0.5;exitY=0;exitDx=0;exitDy=0;" edge="1" parent="1" source="_s_W3P0ang8MFZWdYoKm-90">
          <mxGeometry width="50" height="50" relative="1" as="geometry">
            <mxPoint x="645" y="1272" as="sourcePoint" />
            <mxPoint x="604" y="1250" as="targetPoint" />
            <Array as="points">
              <mxPoint x="635" y="1266" />
              <mxPoint x="604" y="1265" />
            </Array>
          </mxGeometry>
        </mxCell>
        <mxCell id="_s_W3P0ang8MFZWdYoKm-113" value="" style="endArrow=none;html=1;rounded=0;fontFamily=Times New Roman;fontSize=8;exitX=0.5;exitY=0;exitDx=0;exitDy=0;" edge="1" parent="1">
          <mxGeometry width="50" height="50" relative="1" as="geometry">
            <mxPoint x="800" y="1284.65" as="sourcePoint" />
            <mxPoint x="769" y="1250" as="targetPoint" />
            <Array as="points">
              <mxPoint x="800" y="1266" />
              <mxPoint x="769" y="1265" />
            </Array>
          </mxGeometry>
        </mxCell>
        <mxCell id="_s_W3P0ang8MFZWdYoKm-114" value="" style="endArrow=none;html=1;rounded=0;fontFamily=Times New Roman;fontSize=8;exitX=0.5;exitY=0;exitDx=0;exitDy=0;" edge="1" parent="1" source="_s_W3P0ang8MFZWdYoKm-94">
          <mxGeometry width="50" height="50" relative="1" as="geometry">
            <mxPoint x="720" y="1284.65" as="sourcePoint" />
            <mxPoint x="749" y="1250" as="targetPoint" />
            <Array as="points">
              <mxPoint x="715" y="1266" />
              <mxPoint x="749" y="1266" />
            </Array>
          </mxGeometry>
        </mxCell>
      </root>
    </mxGraphModel>
  </diagram>
</mxfile>
